%
M48
M72
T01C0.0120
T02C0.0400
T03C0.0610
T04C0.1000
%
T01
X15833Y9500
X14083Y9875
X14083Y10250
X14208Y10625
X15833Y11375
X14208Y12125
X15583Y13375
X16833Y13375
X19333Y12875
X19708Y13625
X21083Y12250
X21083Y11875
X22208Y12625
X23708Y11750
X23083Y11375
X22583Y11500
X23708Y10750
X25583Y10250
X25583Y11875
X25583Y12250
X25583Y12625
X24833Y13000
X24458Y12500
X19833Y9250
X22583Y9000
X15583Y16875
X13958Y19125
X16333Y20750
X16833Y21625
T02
X13333Y21000
X12333Y21000
X12333Y20000
X13333Y20000
X13333Y19000
X12333Y19000
X14833Y8500
X15833Y8500
X16833Y8500
X17833Y8500
X18833Y8500
X19833Y8500
X20833Y8500
X21833Y8500
X22833Y8500
X23833Y8500
X24833Y8500
X25833Y8500
X26833Y8500
X26833Y7500
X25833Y7500
X24833Y7500
X23833Y7500
X22833Y7500
X21833Y7500
X20833Y7500
X19833Y7500
X18833Y7500
X17833Y7500
X16833Y7500
X15833Y7500
X14833Y7500
T03
X26507Y14650
X26507Y24201
T04
X12833Y8000
X12833Y24500
M30
