G75*
%MOIN*%
%OFA0B0*%
%FSLAX24Y24*%
%IPPOS*%
%LPD*%
%AMOC8*
5,1,8,0,0,1.08239X$1,22.5*
%
%ADD10C,0.0100*%
%ADD11R,0.0520X0.0920*%
%ADD12R,0.1457X0.0906*%
%ADD13R,0.0300X0.0840*%
%ADD14R,0.0260X0.0540*%
%ADD15R,0.0540X0.0260*%
%ADD16R,0.0749X0.0394*%
%ADD17R,0.0827X0.0591*%
%ADD18R,0.0749X0.0473*%
%ADD19C,0.0000*%
%ADD20C,0.0650*%
%ADD21OC8,0.0680*%
%ADD22R,0.0591X0.0670*%
%ADD23R,0.0670X0.0591*%
%ADD24R,0.0749X0.0670*%
%ADD25R,0.0631X0.0631*%
%ADD26C,0.1440*%
%ADD27OC8,0.0780*%
D10*
X011333Y006500D02*
X011333Y025996D01*
X030703Y025996D01*
X030703Y006500D01*
X011333Y006500D01*
D11*
X027923Y010280D03*
X028833Y010280D03*
X029743Y010280D03*
D12*
X028833Y012720D03*
D13*
X018083Y012710D03*
X017583Y012710D03*
X017083Y012710D03*
X016583Y012710D03*
X016083Y012710D03*
X015583Y012710D03*
X015083Y012710D03*
X014583Y012710D03*
X014583Y010290D03*
X015083Y010290D03*
X015583Y010290D03*
X016083Y010290D03*
X016583Y010290D03*
X017083Y010290D03*
X017583Y010290D03*
X018083Y010290D03*
D14*
X022231Y009810D03*
X022546Y009810D03*
X022861Y009810D03*
X023176Y009810D03*
X023491Y009810D03*
X023806Y009810D03*
X024121Y009810D03*
X024436Y009810D03*
X024436Y013190D03*
X024121Y013190D03*
X023806Y013190D03*
X023491Y013190D03*
X023176Y013190D03*
X022861Y013190D03*
X022546Y013190D03*
X022231Y013190D03*
D15*
X021643Y012602D03*
X021643Y012287D03*
X021643Y011972D03*
X021643Y011657D03*
X021643Y011343D03*
X021643Y011028D03*
X021643Y010713D03*
X021643Y010398D03*
X025023Y010398D03*
X025023Y010713D03*
X025023Y011028D03*
X025023Y011343D03*
X025023Y011657D03*
X025023Y011972D03*
X025023Y012287D03*
X025023Y012602D03*
D16*
X016940Y015622D03*
X016940Y016291D03*
X016940Y017244D03*
X016940Y018228D03*
X016940Y019213D03*
X016940Y019902D03*
X016940Y020492D03*
X016940Y021181D03*
X016940Y022165D03*
X016940Y023150D03*
D17*
X025207Y025307D03*
X025660Y013693D03*
D18*
X016940Y014382D03*
D19*
X026202Y014650D02*
X026204Y014685D01*
X026210Y014719D01*
X026220Y014752D01*
X026233Y014785D01*
X026250Y014815D01*
X026271Y014843D01*
X026294Y014869D01*
X026321Y014892D01*
X026349Y014911D01*
X026380Y014927D01*
X026413Y014940D01*
X026446Y014949D01*
X026481Y014954D01*
X026516Y014955D01*
X026550Y014952D01*
X026585Y014945D01*
X026618Y014934D01*
X026649Y014920D01*
X026679Y014902D01*
X026707Y014881D01*
X026732Y014856D01*
X026754Y014829D01*
X026773Y014800D01*
X026788Y014769D01*
X026800Y014736D01*
X026808Y014702D01*
X026812Y014667D01*
X026812Y014633D01*
X026808Y014598D01*
X026800Y014564D01*
X026788Y014531D01*
X026773Y014500D01*
X026754Y014471D01*
X026732Y014444D01*
X026707Y014419D01*
X026679Y014398D01*
X026649Y014380D01*
X026618Y014366D01*
X026585Y014355D01*
X026550Y014348D01*
X026516Y014345D01*
X026481Y014346D01*
X026446Y014351D01*
X026413Y014360D01*
X026380Y014373D01*
X026349Y014389D01*
X026321Y014408D01*
X026294Y014431D01*
X026271Y014457D01*
X026250Y014485D01*
X026233Y014515D01*
X026220Y014548D01*
X026210Y014581D01*
X026204Y014615D01*
X026202Y014650D01*
X026202Y024201D02*
X026204Y024236D01*
X026210Y024270D01*
X026220Y024303D01*
X026233Y024336D01*
X026250Y024366D01*
X026271Y024394D01*
X026294Y024420D01*
X026321Y024443D01*
X026349Y024462D01*
X026380Y024478D01*
X026413Y024491D01*
X026446Y024500D01*
X026481Y024505D01*
X026516Y024506D01*
X026550Y024503D01*
X026585Y024496D01*
X026618Y024485D01*
X026649Y024471D01*
X026679Y024453D01*
X026707Y024432D01*
X026732Y024407D01*
X026754Y024380D01*
X026773Y024351D01*
X026788Y024320D01*
X026800Y024287D01*
X026808Y024253D01*
X026812Y024218D01*
X026812Y024184D01*
X026808Y024149D01*
X026800Y024115D01*
X026788Y024082D01*
X026773Y024051D01*
X026754Y024022D01*
X026732Y023995D01*
X026707Y023970D01*
X026679Y023949D01*
X026649Y023931D01*
X026618Y023917D01*
X026585Y023906D01*
X026550Y023899D01*
X026516Y023896D01*
X026481Y023897D01*
X026446Y023902D01*
X026413Y023911D01*
X026380Y023924D01*
X026349Y023940D01*
X026321Y023959D01*
X026294Y023982D01*
X026271Y024008D01*
X026250Y024036D01*
X026233Y024066D01*
X026220Y024099D01*
X026210Y024132D01*
X026204Y024166D01*
X026202Y024201D01*
D20*
X026507Y024201D03*
X026507Y014650D03*
D21*
X026833Y008500D03*
X025833Y008500D03*
X024833Y008500D03*
X023833Y008500D03*
X022833Y008500D03*
X021833Y008500D03*
X020833Y008500D03*
X019833Y008500D03*
X018833Y008500D03*
X017833Y008500D03*
X016833Y008500D03*
X015833Y008500D03*
X014833Y008500D03*
X014833Y007500D03*
X015833Y007500D03*
X016833Y007500D03*
X017833Y007500D03*
X018833Y007500D03*
X019833Y007500D03*
X020833Y007500D03*
X021833Y007500D03*
X022833Y007500D03*
X023833Y007500D03*
X024833Y007500D03*
X025833Y007500D03*
X026833Y007500D03*
D22*
X028782Y008500D03*
X029885Y008500D03*
D23*
X026833Y010449D03*
X026833Y011551D03*
D24*
X019833Y012051D03*
X019833Y010949D03*
X012833Y011051D03*
X012833Y009949D03*
X012833Y012449D03*
X012833Y013551D03*
D25*
X012833Y014811D03*
X012833Y016189D03*
D26*
X012833Y008000D03*
X012833Y024500D03*
D27*
X012333Y021000D03*
X013333Y021000D03*
X013333Y020000D03*
X012333Y020000D03*
X012333Y019000D03*
X013333Y019000D03*
M02*
