G75*
%MOIN*%
%OFA0B0*%
%FSLAX24Y24*%
%IPPOS*%
%LPD*%
%AMOC8*
5,1,8,0,0,1.08239X$1,22.5*
%
%ADD10C,0.0100*%
%ADD11C,0.0000*%
D10*
X011333Y006500D02*
X011333Y025996D01*
X030703Y025996D01*
X030703Y006500D01*
X011333Y006500D01*
D11*
X026202Y014650D02*
X026204Y014685D01*
X026210Y014719D01*
X026220Y014752D01*
X026233Y014785D01*
X026250Y014815D01*
X026271Y014843D01*
X026294Y014869D01*
X026321Y014892D01*
X026349Y014911D01*
X026380Y014927D01*
X026413Y014940D01*
X026446Y014949D01*
X026481Y014954D01*
X026516Y014955D01*
X026550Y014952D01*
X026585Y014945D01*
X026618Y014934D01*
X026649Y014920D01*
X026679Y014902D01*
X026707Y014881D01*
X026732Y014856D01*
X026754Y014829D01*
X026773Y014800D01*
X026788Y014769D01*
X026800Y014736D01*
X026808Y014702D01*
X026812Y014667D01*
X026812Y014633D01*
X026808Y014598D01*
X026800Y014564D01*
X026788Y014531D01*
X026773Y014500D01*
X026754Y014471D01*
X026732Y014444D01*
X026707Y014419D01*
X026679Y014398D01*
X026649Y014380D01*
X026618Y014366D01*
X026585Y014355D01*
X026550Y014348D01*
X026516Y014345D01*
X026481Y014346D01*
X026446Y014351D01*
X026413Y014360D01*
X026380Y014373D01*
X026349Y014389D01*
X026321Y014408D01*
X026294Y014431D01*
X026271Y014457D01*
X026250Y014485D01*
X026233Y014515D01*
X026220Y014548D01*
X026210Y014581D01*
X026204Y014615D01*
X026202Y014650D01*
X026202Y024201D02*
X026204Y024236D01*
X026210Y024270D01*
X026220Y024303D01*
X026233Y024336D01*
X026250Y024366D01*
X026271Y024394D01*
X026294Y024420D01*
X026321Y024443D01*
X026349Y024462D01*
X026380Y024478D01*
X026413Y024491D01*
X026446Y024500D01*
X026481Y024505D01*
X026516Y024506D01*
X026550Y024503D01*
X026585Y024496D01*
X026618Y024485D01*
X026649Y024471D01*
X026679Y024453D01*
X026707Y024432D01*
X026732Y024407D01*
X026754Y024380D01*
X026773Y024351D01*
X026788Y024320D01*
X026800Y024287D01*
X026808Y024253D01*
X026812Y024218D01*
X026812Y024184D01*
X026808Y024149D01*
X026800Y024115D01*
X026788Y024082D01*
X026773Y024051D01*
X026754Y024022D01*
X026732Y023995D01*
X026707Y023970D01*
X026679Y023949D01*
X026649Y023931D01*
X026618Y023917D01*
X026585Y023906D01*
X026550Y023899D01*
X026516Y023896D01*
X026481Y023897D01*
X026446Y023902D01*
X026413Y023911D01*
X026380Y023924D01*
X026349Y023940D01*
X026321Y023959D01*
X026294Y023982D01*
X026271Y024008D01*
X026250Y024036D01*
X026233Y024066D01*
X026220Y024099D01*
X026210Y024132D01*
X026204Y024166D01*
X026202Y024201D01*
M02*
